<svg xmlns="http://www.w3.org/2000/svg" width="16" height="16" viewBox="0 0 16 16" fill="none">
    <path fill-rule="evenodd" clip-rule="evenodd" d="M8.00016 14.6667C8.87564 14.6667 9.74255 14.4942 10.5514 14.1592C11.3602 13.8242 12.0952 13.3331 12.7142 12.714C13.3333 12.095 13.8243 11.3601 14.1594 10.5512C14.4944 9.74238 14.6668 8.87548 14.6668 8C14.6668 7.12452 14.4944 6.25761 14.1594 5.44877C13.8243 4.63994 13.3333 3.90501 12.7142 3.28595C12.0952 2.66689 11.3602 2.17583 10.5514 1.8408C9.74255 1.50577 8.87564 1.33333 8.00016 1.33333C6.23205 1.33333 4.53636 2.03571 3.28612 3.28595C2.03588 4.53619 1.3335 6.23189 1.3335 8C1.3335 9.76811 2.03588 11.4638 3.28612 12.714C4.53636 13.9643 6.23205 14.6667 8.00016 14.6667ZM7.82831 10.6963L11.532 6.25185L10.3942 5.3037L7.20905 9.12518L5.5609 7.47629L4.5135 8.5237L6.73572 10.7459L7.30905 11.3193L7.82831 10.6963Z" fill="#11CABE"/>
</svg>
