<svg xmlns="http://www.w3.org/2000/svg" width="16" height="16" viewBox="0 0 16 16" fill="none">
    <path d="M8 1.5C8.59668 1.5 9.1722 1.57617 9.72656 1.72852C10.2809 1.88086 10.7972 2.10091 11.2754 2.38867C11.7536 2.67643 12.1916 3.01497 12.5894 3.4043C12.9871 3.79362 13.3278 4.23161 13.6113 4.71826C13.8949 5.20492 14.1128 5.72331 14.2651 6.27344C14.4175 6.82357 14.4958 7.39909 14.5 8C14.5 8.59668 14.4238 9.1722 14.2715 9.72656C14.1191 10.2809 13.8991 10.7972 13.6113 11.2754C13.3236 11.7536 12.985 12.1916 12.5957 12.5894C12.2064 12.9871 11.7684 13.3278 11.2817 13.6113C10.7951 13.8949 10.2767 14.1128 9.72656 14.2651C9.17643 14.4175 8.60091 14.4958 8 14.5C7.40332 14.5 6.8278 14.4238 6.27344 14.2715C5.71908 14.1191 5.2028 13.8991 4.72461 13.6113C4.24642 13.3236 3.80843 12.985 3.41064 12.5957C3.01286 12.2064 2.6722 11.7684 2.38867 11.2817C2.10514 10.7951 1.88721 10.2767 1.73486 9.72656C1.58252 9.17643 1.50423 8.60091 1.5 8C1.5 7.40332 1.57617 6.8278 1.72852 6.27344C1.88086 5.71908 2.10091 5.2028 2.38867 4.72461C2.67643 4.24642 3.01497 3.80843 3.4043 3.41064C3.79362 3.01286 4.23161 2.6722 4.71826 2.38867C5.20492 2.10514 5.72331 1.88721 6.27344 1.73486C6.82357 1.58252 7.39909 1.50423 8 1.5ZM8.8125 11.25V9.625H7.1875V11.25H8.8125ZM8.8125 8.8125V4.75H7.1875V8.8125H8.8125Z" fill="#F9AA4B"/>
</svg>
